<?xml version="1.0" encoding="utf-8"?>
<!-- Generator: Adobe Illustrator 18.1.1, SVG Export Plug-In . SVG Version: 6.00 Build 0)  -->
<!DOCTYPE svg PUBLIC "-//W3C//DTD SVG 1.1//EN" "http://www.w3.org/Graphics/SVG/1.1/DTD/svg11.dtd">
<svg version="1.1" id="Layer_1" xmlns="http://www.w3.org/2000/svg" xmlns:xlink="http://www.w3.org/1999/xlink" x="0px" y="0px"
	 viewBox="0 0 280 74.8" enable-background="new 0 0 280 74.8" xml:space="preserve">
<g>
	<g>
		<path fill="#FFFFFF" d="M94.7,16.3h3.5l13.2,37.5l12.3-37.6h2.4l12.3,37.6l13.2-37.5h3.3l-15.3,42.5h-2.5l-12.3-36.6l-12.3,36.6
			H110L94.7,16.3z"/>
		<path fill="#FFFFFF" d="M175,16h3l19.6,42.5h-3.4l-5.4-11.8h-24.9l-5.4,11.8h-3.3L175,16z M187.5,43.8l-11.1-24.4l-11.1,24.4
			H187.5z"/>
		<path fill="#FFFFFF" d="M206.5,16.3h3.1V44l26.9-27.7h4.3l-18.4,18.6l19.2,23.5h-4.1l-17.3-21.3l-10.5,10.6v10.7h-3.1V16.3z"/>
		<path fill="#FFFFFF" d="M249.6,16.3h30v2.9h-26.9v16.6h24.1v2.9h-24.1v16.9h27.2v2.9h-30.3V16.3z"/>
	</g>
	<g>
		<path fill="#FFFFFF" d="M11.2,24.2c-0.2,0-0.4,0-0.4,0.1c0,0-0.1,0.2-0.1,0.4c0,0.1,0.1,0.2,0.4,0.3c0.2,0.1,0.5,0.2,0.8,0.4
			c0.3,0.2,0.6,0.4,0.9,0.7c0.1,0.1,0.1,0.1,0.2,0.2l0,0l14.7,24.3h6.8L19.1,24.2H11.2z M63.7,24.3c0,0-0.2-0.1-0.4-0.1H56
			L45.5,43.3L34.3,24.2h-7.8c-0.2,0-0.4,0-0.4,0.1c0,0-0.1,0.2-0.1,0.4c0,0.1,0.1,0.2,0.4,0.3c0.2,0.1,0.5,0.2,0.8,0.4
			c0.3,0.2,0.6,0.4,0.9,0.7c0.1,0.1,0.1,0.1,0.2,0.2l0,0L43,50.6h4.4l14.1-24.3c0.1-0.1,0.1-0.1,0.2-0.2c0.3-0.3,0.6-0.5,0.9-0.7
			c0.3-0.2,0.6-0.3,0.8-0.4c0.2-0.1,0.4-0.2,0.4-0.3C63.8,24.4,63.8,24.3,63.7,24.3z"/>
		<path fill="#FFFFFF" d="M37.3,74.8C16.7,74.8-0.1,58-0.1,37.4C-0.1,16.8,16.7,0,37.3,0s37.4,16.8,37.4,37.4
			C74.7,58,57.9,74.8,37.3,74.8z M37.3,3.5C18.6,3.5,3.4,18.7,3.4,37.4s15.2,33.9,33.9,33.9s33.9-15.2,33.9-33.9S56,3.5,37.3,3.5z"
			/>
	</g>
</g>
</svg>
